<?xml version="1.0" encoding="UTF-8"?>
<svg id="Layer_1" data-name="Layer 1" xmlns="http://www.w3.org/2000/svg" viewBox="0 0 289 231.5">
  <defs>
    <style>
      .cls-1 {
        fill: #4d4d4d;
      }

      .cls-1, .cls-2, .cls-3 {
        stroke-miterlimit: 10;
      }

      .cls-1, .cls-3 {
        stroke: #4d4d4d;
        stroke-width: 4px;
      }

      .cls-2 {
        stroke: #a67c52;
      }

      .cls-2, .cls-3 {
        fill: none;
      }

      .cls-4 {
        fill: #30d5c8;
      }

      .cls-5 {
        fill: #ffdb00;
      }
    </style>
  </defs>
  <circle class="cls-5" cx="33" cy="29.5" r="29.5"/>
  <path class="cls-3" d="M251,231.5v-69.82c0-2.86-2.33-5.18-5.21-5.18H88.21c-2.88,0-5.21,2.32-5.21,5.18v65.91"/>
  <path class="cls-3" d="M101,154.5l-1-134.7c0-2.93,2.37-5.3,5.3-5.3h90.4c2.93,0,5.3,2.37,5.3,5.3V98.5"/>
  <path class="cls-3" d="M166,155.5v-48.39c0-3.65,2.11-6.61,4.72-6.61h111.57c2.6,0,4.72,2.96,4.72,6.61v89.09"/>
  <path class="cls-3" d="M99,98.5H7.3c-2.93,0-5.3,3.05-5.3,6.82v91.88"/>
  <circle class="cls-3" cx="14" cy="108.5" r="2"/>
  <circle class="cls-3" cx="54" cy="108.5" r="2"/>
  <circle class="cls-3" cx="33" cy="108.5" r="2"/>
  <circle class="cls-3" cx="75" cy="108.5" r="2"/>
  <circle class="cls-3" cx="231" cy="166.5" r="2"/>
  <circle class="cls-3" cx="171" cy="166.5" r="2"/>
  <circle class="cls-3" cx="135" cy="166.5" r="2"/>
  <circle class="cls-3" cx="265" cy="111.5" r="2"/>
  <circle class="cls-3" cx="240" cy="111.5" r="2"/>
  <circle class="cls-3" cx="213" cy="111.5" r="2"/>
  <circle class="cls-3" cx="187" cy="111.5" r="2"/>
  <circle class="cls-1" cx="173" cy="24.5" r="2"/>
  <circle class="cls-1" cx="149" cy="24.5" r="2"/>
  <circle class="cls-1" cx="133" cy="24.5" r="2"/>
  <circle class="cls-1" cx="114" cy="24.5" r="2"/>
  <circle class="cls-3" cx="199" cy="166.5" r="2"/>
  <path class="cls-4" d="M195.2,205.5h14.6c.66,0,1.2,.54,1.2,1.2v24.8h-17v-24.8c0-.66,.54-1.2,1.2-1.2Z"/>
  <line class="cls-2" x1="138.25" y1="100.5" x2="133" y2="154"/>
  <line class="cls-2" x1="149.5" y1="100.5" x2="154" y2="154"/>
  <line class="cls-2" x1="136" y1="108" x2="151" y2="108"/>
  <line class="cls-2" x1="135.5" y1="118" x2="152.5" y2="118"/>
  <line class="cls-2" x1="133.5" y1="129" x2="153.5" y2="129"/>
  <line class="cls-2" x1="132.5" y1="142" x2="154.5" y2="142"/>
  <path class="cls-4" d="M219.2,128.5h14.6c.66,0,1.2,.54,1.2,1.2v24.8h-17v-24.8c0-.66,.54-1.2,1.2-1.2Z"/>
  <path class="cls-4" d="M32.2,171.5h14.6c.66,0,1.2,.54,1.2,1.2v24.8H31v-24.8c0-.66,.54-1.2,1.2-1.2Z"/>
  <path class="cls-4" d="M136.2,72.5h14.6c.66,0,1.2,.54,1.2,1.2v24.8h-17v-24.8c0-.66,.54-1.2,1.2-1.2Z"/>
</svg>